<svg width="491" height="73" viewBox="0 0 491 73" fill="none" xmlns="http://www.w3.org/2000/svg">
<path d="M369.299 70.8245L337.525 39.9673H375.594L407.069 70.8245H369.299Z" fill="#1A85AB"/>
<path d="M369.299 70.8245H420.257L491 1.46936H440.341L369.299 70.8245Z" fill="#0FA1A9"/>
<path d="M0 71.7061V40.849H20.3834V44.3755H3.89683V54.3674H20.0836V57.8939H3.89683V68.4735H20.3834V72H0V71.7061Z" fill="#656568"/>
<path d="M27.2771 64.3592C29.3753 66.7102 32.6727 68.7674 37.169 68.7674C42.8643 68.7674 44.6629 65.8286 44.6629 63.4776C44.6629 59.951 40.7661 58.7755 36.8692 57.6C31.7734 56.4245 26.3778 54.9551 26.3778 48.7837C26.3778 43.7878 30.8741 40.2612 37.169 40.2612C41.9651 40.2612 45.5622 41.7306 48.26 44.6694L45.8619 47.6082C43.4639 44.9633 40.1665 44.0816 36.8692 44.0816C33.2722 44.0816 30.5744 46.1388 30.5744 49.0776C30.5744 52.0163 34.1714 53.1918 38.0683 54.0735C43.1641 55.5429 48.8595 57.0123 48.8595 63.4776C48.8595 67.8857 45.8619 72.5878 37.4687 72.5878C32.0731 72.5878 28.1763 70.5306 25.4785 67.5918L27.2771 64.3592Z" fill="#656568"/>
<path d="M54.5563 64.3592C56.6546 66.7102 59.952 68.7674 64.4483 68.7674C70.1436 68.7674 71.9422 65.8286 71.9422 63.4776C71.9422 59.951 68.0454 58.7755 64.1485 57.6C59.0527 56.4245 53.6571 54.9551 53.6571 48.7837C53.6571 43.7878 58.1534 40.2612 64.4483 40.2612C69.2444 40.2612 72.8415 41.7306 75.5393 44.6694L73.1412 47.6082C70.7432 44.9633 67.4458 44.0816 64.1485 44.0816C60.5515 44.0816 57.8537 46.1388 57.8537 49.0776C57.8537 52.0163 61.4507 53.1918 65.3476 54.0735C70.4434 55.5429 76.1388 57.0123 76.1388 63.4776C76.1388 67.8857 73.1412 72.5878 64.748 72.5878C59.3524 72.5878 55.4556 70.5306 52.7578 67.5918L54.5563 64.3592Z" fill="#656568"/>
<path d="M81.5332 71.7061V40.849H101.917V44.3755H85.43V54.3674H101.617V57.8939H85.43V68.4735H101.917V72H81.5332V71.7061Z" fill="#656568"/>
<path d="M130.393 71.7061L112.108 47.0204V71.7061H108.211V40.849H112.108L130.093 64.947V40.849H133.99V71.4123H130.393V71.7061Z" fill="#656568"/>
<path d="M148.978 71.7061V44.3755H139.086V40.849H162.767V44.3755H152.875V71.7061H148.978Z" fill="#656568"/>
<path d="M167.863 71.7061V40.849H171.76V71.4123H167.863V71.7061Z" fill="#656568"/>
<path d="M201.436 71.7061L198.738 64.6531H182.851L180.154 71.4123H175.957L188.547 40.849H193.343L205.933 71.4123H201.436V71.7061ZM190.945 44.3755L184.05 61.4204H197.539L190.945 44.3755Z" fill="#656568"/>
<path d="M209.828 71.7061V40.849H213.725V68.1796H228.113V71.7061H209.828Z" fill="#656568"/>
<path d="M234.109 64.3592C236.207 66.7102 239.505 68.7674 244.001 68.7674C249.696 68.7674 251.495 65.8286 251.495 63.4776C251.495 59.951 247.598 58.7755 243.701 57.6C238.605 56.4245 233.21 54.9551 233.21 48.7837C233.21 43.7878 237.706 40.2612 244.001 40.2612C248.797 40.2612 252.394 41.7306 255.092 44.6694L252.694 47.6082C250.296 44.9633 246.999 44.0816 243.701 44.0816C240.104 44.0816 237.406 46.1388 237.406 49.0776C237.406 52.0163 241.003 53.1918 244.9 54.0735C249.996 55.5429 255.692 57.0123 255.692 63.4776C255.692 67.8857 252.694 72.5878 244.301 72.5878C238.905 72.5878 235.008 70.5306 232.311 67.5918L234.109 64.3592Z" fill="#656568"/>
<path d="M10.7912 18.8082H6.29487V29.0939H0V0.587769H13.7888C19.7839 0.587769 23.6807 4.40818 23.6807 9.69797C23.381 14.6939 20.3834 17.6327 17.0861 18.2204L23.6807 29.0939H16.4866L10.7912 18.8082ZM12.8895 5.58369H6.29487V13.5184H12.8895C15.2875 13.5184 17.3858 12.049 17.3858 9.69797C17.3858 7.34695 15.2875 5.58369 12.8895 5.58369Z" fill="#0FA1A9"/>
<path d="M28.1777 0.587769H34.4726V29.3878H28.1777V0.587769Z" fill="#0FA1A9"/>
<path d="M41.6665 20.5714C43.7647 22.6286 47.0621 24.3918 50.9589 24.3918C54.2562 24.3918 56.0547 22.9225 56.0547 21.1592C56.0547 19.102 53.6567 18.2204 50.0596 17.6327C45.2635 16.4571 39.2684 15.2816 39.2684 8.81633C39.2684 4.11429 43.465 0.293884 50.3594 0.293884C55.1555 0.293884 58.7525 1.76327 61.7501 4.40817L58.153 8.81633C55.755 6.75919 52.7574 5.58368 49.7599 5.58368C47.0621 5.58368 45.5633 6.75919 45.5633 8.52246C45.5633 10.5796 47.9613 11.1674 51.2586 11.7551C56.0547 12.9306 62.3496 14.1061 62.3496 20.5714C62.3496 25.8612 58.4528 29.6816 50.6591 29.6816C44.9638 29.6816 41.0669 27.9184 38.3691 24.9796L41.6665 20.5714Z" fill="#0FA1A9"/>
<path d="M74.939 17.6327L72.541 20.2776V29.0939H66.2461V0.587769H72.541V13.5184L83.0324 0.587769H90.8261L79.1356 14.1061L91.4256 29.3878H83.9317L74.939 17.6327Z" fill="#0FA1A9"/>
<path d="M130.994 8.52246L122.601 29.0939H119.903L111.51 8.52246V29.0939H105.215V0.587769H113.908L121.102 18.5143L128.296 0.587769H136.989V29.3878H130.694V8.52246H130.994Z" fill="#0FA1A9"/>
<path d="M161.868 24.098H148.679L146.881 29.0939H139.986L151.377 0.293884H159.171L170.561 29.0939H163.667L161.868 24.098ZM150.478 18.8082H160.07L155.274 5.87756L150.478 18.8082Z" fill="#0FA1A9"/>
<path d="M179.254 9.99185V29.3878H172.959V0.587769H179.254L192.743 19.1021V0.587769H199.038V29.3878H193.043L179.254 9.99185Z" fill="#0FA1A9"/>
<path d="M223.917 24.098H210.728L208.93 29.0939H202.035L213.426 0.293884H221.22L232.61 29.0939H225.716L223.917 24.098ZM212.227 18.8082H221.819L217.323 5.87756L212.227 18.8082Z" fill="#0FA1A9"/>
<path d="M247.898 0C253.893 0 257.79 2.93878 259.888 6.17143L254.792 9.1102C253.293 7.05306 250.895 5.58367 247.898 5.58367C242.502 5.58367 238.605 9.69796 238.605 14.9878C238.605 20.2776 242.502 24.3918 247.898 24.3918C250.596 24.3918 252.994 23.2163 254.193 22.3347V18.5143H246.399V13.2245H260.488V24.098C257.49 27.3306 253.293 29.3878 247.898 29.3878C239.205 29.3878 232.311 23.5102 232.311 14.4C232.311 5.87755 239.205 0 247.898 0Z" fill="#0FA1A9"/>
<path d="M265.283 0.587769H285.966V5.87756H271.578V12.049H285.667V17.3388H271.578V24.098H285.966V29.3878H265.283V0.587769Z" fill="#0FA1A9"/>
<path d="M316.243 8.52246L307.85 29.0939H305.152L296.759 8.52246V29.0939H290.764V0.587769H299.457L306.651 18.5143L313.845 0.587769H322.538V29.3878H316.243V8.52246Z" fill="#0FA1A9"/>
<path d="M328.232 0.587769H348.916V5.87756H334.527V12.049H348.616V17.3388H334.527V24.098H348.916V29.3878H328.232V0.587769Z" fill="#0FA1A9"/>
<path d="M360.006 9.99185V29.3878H353.711V0.587769H360.006L373.495 19.1021V0.587769H379.79V29.3878H373.795L360.006 9.99185Z" fill="#0FA1A9"/>
<path d="M392.679 5.87756H383.986V0.587769H407.367V5.87756H398.974V29.0939H392.679V5.87756Z" fill="#0FA1A9"/>
</svg>
